<svg xmlns="http://www.w3.org/2000/svg" xmlns:xlink="http://www.w3.org/1999/xlink" data-v-50f853a8="" version="1.0" width="100%" height="100%" viewBox="0 0 340.000000 250.000000" preserveAspectRatio="xMidYMid meet" color-interpolation-filters="sRGB" style="margin: auto;">  <g data-v-50f853a8="" fill="#333" class="iconlettersvg-g iconlettersvg" transform="translate(145.31874275373846,99.99999237060547)"><g mask="url(#8daad7e3-5bd3-424d-81b9-8f9c9b14d6c5)"><g class="tp-name"><g transform="scale(1)"><g transform="translate(0, 0)"><g class="name-imagesvg"><g><rect fill="#333" fill-opacity="0" stroke-width="2" x="0" y="0" width="49.362514689202065" height="50" class="image-rect"/> <svg x="0" y="0" width="49.362514689202065" height="50" filtersec="colorsb9776189144" class="image-svg-svg primary"><svg xmlns="http://www.w3.org/2000/svg" viewBox="0 0 13.81 13.95"><title>资源 33</title><path d="M11.19 11.93H2.61a1.6 1.6 0 1 1 0-3.2h8.58a1.6 1.6 0 0 1 0 3.2z" fill="#e88733"/><path d="M1.6 14a1.57 1.57 0 0 1-.7-.17 1.59 1.59 0 0 1-.74-2.14L5.43.9a1.6 1.6 0 1 1 2.88 1.41L3 13.05a1.61 1.61 0 0 1-1.4.95z" fill="#7d5f92"/><path d="M12.21 14a1.61 1.61 0 0 1-1.44-.9L5.5 2.31A1.6 1.6 0 1 1 8.38.9l5.27 10.74a1.59 1.59 0 0 1-.74 2.14 1.57 1.57 0 0 1-.7.22z" fill="#6AA84F"/></svg></svg> <!----></g></g></g></g></g><rect v-gra="id" width="61.3976936340332" height="62.11018371582031" transform="translate(-6, -6)" style="pointer-events:none;" fill="url(#9433fe0b-cf99-4cff-84b2-744e9601a6d5)"/></g> <!----></g> <!----><defs v-gra="od"><filter id="05e59b44-05af-49a0-a3a5-0fa50b6c26cd" filterUnits="userSpaceOnUse"><feColorMatrix type="matrix" values="0 0 0 0 0.99609375  0 0 0 0 0.99609375  0 0 0 0 0.99609375  0 0 0 1 0"/></filter><linearGradient x1="0" y1="1" x2="0" y2="0" id="9433fe0b-cf99-4cff-84b2-744e9601a6d5"><stop offset="0%" stop-color="#00c9ff"/><stop offset="100%" stop-color="#92fe9d"/></linearGradient><filter id="42443b3f1de60f6b6fd3b6a9844b4764" filterUnits="userSpaceOnUse"><feColorMatrix type="matrix" values="0 0 0 0 0.99609375  0 0 0 0 0.99609375  0 0 0 0 0.99609375  0 0 0 1 0"/></filter></defs><mask v-gra="im" id="8daad7e3-5bd3-424d-81b9-8f9c9b14d6c5"><g filter="url(#05e59b44-05af-49a0-a3a5-0fa50b6c26cd)"><g class="tp-name"><g transform="scale(1)"><g transform="translate(0, 0)"><g class="name-imagesvg"><g><rect fill="#333" fill-opacity="0" stroke-width="2" x="0" y="0" width="49.362514689202065" height="50" class="image-rect"/> <svg x="0" y="0" width="49.362514689202065" height="50" filtersec="colorsb9776189144" class="image-svg-svg primary"><svg xmlns="http://www.w3.org/2000/svg" viewBox="0 0 13.81 13.95"><title>资源 33</title><path d="M11.19 11.93H2.61a1.6 1.6 0 1 1 0-3.2h8.58a1.6 1.6 0 0 1 0 3.2z" fill="#e88733"/><path d="M1.6 14a1.57 1.57 0 0 1-.7-.17 1.59 1.59 0 0 1-.74-2.14L5.43.9a1.6 1.6 0 1 1 2.88 1.41L3 13.05a1.61 1.61 0 0 1-1.4.95z" fill="#7d5f92"/><path d="M12.21 14a1.61 1.61 0 0 1-1.44-.9L5.5 2.31A1.6 1.6 0 1 1 8.38.9l5.27 10.74a1.59 1.59 0 0 1-.74 2.14 1.57 1.57 0 0 1-.7.22z" fill="#6AA84F"/></svg></svg></g></g></g></g></g></g></mask></svg>