<svg data-v-50f853a8="" version="1.0" xmlns="http://www.w3.org/2000/svg" xmlns:xlink="http://www.w3.org/1999/xlink" width="100%" height="100%" viewBox="0 0 340.000000 250.000000" preserveAspectRatio="xMidYMid meet" color-interpolation-filters="sRGB" style="margin: auto;"><rect data-v-50f853a8="" x="0" y="0" width="100%" height="100%" fill="#feffff" fill-opacity="1" class="background"></rect> <rect data-v-50f853a8="" x="0" y="0" width="100%" height="100%" fill="url(#watermark)" fill-opacity="1" class="watermarklayer"></rect> <g data-v-50f853a8="" fill="#333" class="iconlettersvg-g iconlettersvg" transform="translate(148.9076614383068,99.9998950958252)"><g mask="url(#fa5c01d4-f3fc-49b5-b051-a5de174c879c)"><g class="tp-name"><g transform="scale(1)"><g transform="translate(0, 0)"><g class="name-imagesvg"><g><rect fill="#333" fill-opacity="0" stroke-width="2" x="0" y="0" width="42.18467571419238" height="50" class="image-rect"></rect> <svg x="0" y="0" width="42.18467571419238" height="50" filtersec="colorsb3366829134" class="image-svg-svg primary"><svg xmlns="http://www.w3.org/2000/svg" viewBox="0 0 123.37 146.22"><path d="M71.25 4a13.6 13.6 0 0 0-16-2.36 14.08 14.08 0 0 0-6.14 17.77l12.47 30.48.1-.24 13 32.1h-.1l11 27.06c2 5-.06-.12 12.27 30.19a13.53 13.53 0 0 0 24.51-11.39C71 .46 74 6.71 71.25 4z" fill="#6AA84F"></path><path d="M58.73 84.1a3.79 3.79 0 0 0-3.5-2.35h-3.45a2.07 2.07 0 0 1-1.92-2.85l2.79-6.9a3.73 3.73 0 0 0 0-2.84L41.54 41.89a3.19 3.19 0 0 0-5.92 0c.62-1.54-33.28 82.39-34.62 85.72a13.53 13.53 0 1 0 25.09 10.14L35.68 114a8.29 8.29 0 0 1 7.68-5.18h21.29a2.78 2.78 0 0 0 2.58-3.82z" fill="#fcc048"></path></svg></svg> <!----></g></g></g></g></g><rect v-gra="id" width="54.18467712402344" height="62.00290298461914" transform="translate(-6, -6)" style="pointer-events:none;" fill="url(#e88ec1ba-acd8-4786-b80d-a91eb28d16f6)"></rect></g> <!----></g> <!----><defs v-gra="od"><filter id="52ffb3ef-6fe4-4aaa-9128-6161fd9df1d0" filterUnits="userSpaceOnUse"><feColorMatrix type="matrix" values="0 0 0 0 0.99609375  0 0 0 0 0.99609375  0 0 0 0 0.99609375  0 0 0 1 0"></feColorMatrix></filter><linearGradient x1="0" y1="1" x2="0" y2="0" id="e88ec1ba-acd8-4786-b80d-a91eb28d16f6"><stop offset="0%" stop-color="#00c9ff"></stop><stop offset="100%" stop-color="#92fe9d"></stop></linearGradient><filter id="42443b3f1de60f6b6fd3b6a9844b4764" filterUnits="userSpaceOnUse"><feColorMatrix type="matrix" values="0 0 0 0 0.99609375  0 0 0 0 0.99609375  0 0 0 0 0.99609375  0 0 0 1 0"></feColorMatrix></filter></defs><mask v-gra="im" id="fa5c01d4-f3fc-49b5-b051-a5de174c879c"><g filter="url(#52ffb3ef-6fe4-4aaa-9128-6161fd9df1d0)"><g class="tp-name"><g transform="scale(1)"><g transform="translate(0, 0)"><g class="name-imagesvg"><g><rect fill="#333" fill-opacity="0" stroke-width="2" x="0" y="0" width="42.18467571419238" height="50" class="image-rect"></rect> <svg x="0" y="0" width="42.18467571419238" height="50" filtersec="colorsb3366829134" class="image-svg-svg primary"><svg xmlns="http://www.w3.org/2000/svg" viewBox="0 0 123.37 146.22"><path d="M71.25 4a13.6 13.6 0 0 0-16-2.36 14.08 14.08 0 0 0-6.14 17.77l12.47 30.48.1-.24 13 32.1h-.1l11 27.06c2 5-.06-.12 12.27 30.19a13.53 13.53 0 0 0 24.51-11.39C71 .46 74 6.71 71.25 4z" fill="#6AA84F"></path><path d="M58.73 84.1a3.79 3.79 0 0 0-3.5-2.35h-3.45a2.07 2.07 0 0 1-1.92-2.85l2.79-6.9a3.73 3.73 0 0 0 0-2.84L41.54 41.89a3.19 3.19 0 0 0-5.92 0c.62-1.54-33.28 82.39-34.62 85.72a13.53 13.53 0 1 0 25.09 10.14L35.68 114a8.29 8.29 0 0 1 7.68-5.18h21.29a2.78 2.78 0 0 0 2.58-3.82z" fill="#fcc048"></path></svg></svg></g></g></g></g></g></g></mask></svg>