<svg xmlns="http://www.w3.org/2000/svg" xmlns:xlink="http://www.w3.org/1999/xlink" data-v-50f853a8="" version="1.0" width="100%" height="100%" viewBox="0 0 340.000000 250.000000" preserveAspectRatio="xMidYMid meet" color-interpolation-filters="sRGB" style="margin: auto;"><rect data-v-50f853a8="" x="0" y="0" width="100%" height="100%" fill="#fff" fill-opacity="1" class="background"/> <rect data-v-50f853a8="" x="0" y="0" width="100%" height="100%" fill="url(#watermark)" fill-opacity="1" class="watermarklayer"/> <g data-v-50f853a8="" fill="#231815" class="icon-text-wrapper icon-svg-group iconsvg" transform="translate(140,88.96401596069336)"><g class="iconsvg-imagesvg" transform="translate(0,0)"><g><rect fill="#231815" fill-opacity="0" stroke-width="2" x="0" y="0" width="60" height="59.50196852345865" class="image-rect"/> <svg x="0" y="0" width="60" height="59.50196852345865" filtersec="colorsb7185214027" class="image-svg-svg primary"><svg xmlns="http://www.w3.org/2000/svg" viewBox="0 0 33.7400016784668 33.459999084472656"><title>A</title><g data-name="图层 2" style="isolation:isolate"><g data-name="Layer 1"><path d="M10.81 28.62l-1.54 4.84H0L11.12 0h11.51l11.11 33.46h-9.26l-1.54-4.84zM13 21.84h7.82L17.15 10.4h-.56z" fill="#231815"/><path fill="#00b2b3" d="M17.15 10.4l7.33 23.06h9.26L26.08 10.4h-8.93z"/><path fill="#dcdddd" style="mix-blend-mode:multiply" d="M17.15 10.4l1.12 3.54h8.99l-1.18-3.54h-8.93z"/><path fill="#e6003e" d="M12.96 21.84l-2.15 6.78h12.13l-2.16-6.78h-7.82z"/><path fill="#dcdddd" style="mix-blend-mode:multiply" d="M17.53 21.84l2.3 6.78h3.11l-2.16-6.78h-3.25z"/></g></g></svg></svg></g></g></g><defs v-gra="od"/></svg>