<svg data-v-50f853a8="" version="1.0" xmlns="http://www.w3.org/2000/svg" xmlns:xlink="http://www.w3.org/1999/xlink" width="100%" height="100%" viewBox="0 0 340.000000 250.000000" preserveAspectRatio="xMidYMid meet" color-interpolation-filters="sRGB" style="margin: auto;"><rect data-v-50f853a8="" x="0" y="0" width="100%" height="100%" fill="#feffff" fill-opacity="1" class="background"></rect> <rect data-v-50f853a8="" x="0" y="0" width="100%" height="100%" fill="url(#watermark)" fill-opacity="1" class="watermarklayer"></rect> <g data-v-50f853a8="" fill="#333" class="iconlettersvg-g iconlettersvg" transform="translate(145.31874275373846,99.99999237060547)"><g><g class="tp-name"><g transform="scale(1)"><g transform="translate(0, 0)"><g class="name-imagesvg"><g><rect fill="#333" fill-opacity="0" stroke-width="2" x="0" y="0" width="49.362514689202065" height="50" class="image-rect"></rect> <svg x="0" y="0" width="49.362514689202065" height="50" filtersec="colorsb616600037" class="image-svg-svg primary"><svg xmlns="http://www.w3.org/2000/svg" viewBox="0 0 13.81 13.95"><title>资源 33</title><path d="M11.19 11.93H2.61a1.6 1.6 0 1 1 0-3.2h8.58a1.6 1.6 0 0 1 0 3.2z" fill="#6AA84F"></path><path d="M1.6 14a1.57 1.57 0 0 1-.7-.17 1.59 1.59 0 0 1-.74-2.14L5.43.9a1.6 1.6 0 1 1 2.88 1.41L3 13.05a1.61 1.61 0 0 1-1.4.95z" fill="#93C47D"></path><path d="M12.21 14a1.61 1.61 0 0 1-1.44-.9L5.5 2.31A1.6 1.6 0 1 1 8.38.9l5.27 10.74a1.59 1.59 0 0 1-.74 2.14 1.57 1.57 0 0 1-.7.22z" fill="#6AA84F"></path></svg></svg></g></g></g></g></g></g></g><defs v-gra="od"></defs></svg>