<svg data-v-50f853a8="" version="1.0" xmlns="http://www.w3.org/2000/svg" xmlns:xlink="http://www.w3.org/1999/xlink" width="100%" height="100%" viewBox="0 0 340.000000 250.000000" preserveAspectRatio="xMidYMid meet" color-interpolation-filters="sRGB" style="margin: auto;"><rect data-v-50f853a8="" x="0" y="0" width="100%" height="100%" fill="#feffff" fill-opacity="1" class="background"></rect> <rect data-v-50f853a8="" x="0" y="0" width="100%" height="100%" fill="url(#watermark)" fill-opacity="1" class="watermarklayer"></rect> <g data-v-50f853a8="" fill="#333" class="iconlettersvg-g iconlettersvg" transform="translate(145,100)"><g><g class="tp-name"><g transform="scale(1)"><g transform="translate(0, 0)"><g class="name-imagesvg"><g><rect fill="#333" fill-opacity="0" stroke-width="2" x="0" y="0" width="50" height="50" class="image-rect"></rect> <svg x="0" y="0" width="50" height="50" filtersec="colorsb473600908" class="image-svg-svg primary"><svg xmlns="http://www.w3.org/2000/svg" viewBox="0 0 278.16 278.16"><path d="M226 174.39H56.83a35.31 35.31 0 0 1 0-70.62H226a35.31 35.31 0 0 1 0 70.62z" fill="#c8e107" opacity=".8"></path><path d="M242.85 278.16a35.31 35.31 0 0 1-35.31-35.31V105.93a35.35 35.35 0 0 0-35.31-35.31h-66.3a35.35 35.35 0 0 0-35.31 35.31v136.92a35.31 35.31 0 0 1-70.62 0V105.93A106 106 0 0 1 105.93 0h66.3a106 106 0 0 1 105.93 105.93v136.92a35.31 35.31 0 0 1-35.31 35.31z" fill="#3ac2d3" opacity=".8"></path></svg></svg></g></g></g></g></g></g></g><defs v-gra="od"></defs></svg>