<svg data-v-50f853a8="" version="1.0" xmlns="http://www.w3.org/2000/svg" xmlns:xlink="http://www.w3.org/1999/xlink" width="100%" height="100%" viewBox="0 0 340.000000 250.000000" preserveAspectRatio="xMidYMid meet" color-interpolation-filters="sRGB" style="margin: auto;"><rect data-v-50f853a8="" x="0" y="0" width="100%" height="100%" fill="#fff" fill-opacity="1" class="background"></rect> <rect data-v-50f853a8="" x="0" y="0" width="100%" height="100%" fill="url(#watermark)" fill-opacity="1" class="watermarklayer"></rect> <g data-v-50f853a8="" fill="#333" class="icon-text-wrapper icon-svg-group iconsvg" transform="translate(134.1539421081543,99.04934120178223)"><g class="iconsvg-imagesvg" transform="translate(0,0)"><g><rect fill="#333" fill-opacity="0" stroke-width="2" x="0" y="0" width="60" height="51.90131829348466" class="image-rect"></rect> <svg x="0" y="0" width="60" height="51.90131829348466" filtersec="colorsb1789935451" class="image-svg-svg primary"><svg xmlns="http://www.w3.org/2000/svg" viewBox="0 0 115.27999877929688 99.72000122070312"><title>12</title><g fill-rule="evenodd"><path fill="#6AA84F" d="M57.56 0l18.19 30.77-40.24 68.95H0L57.56 0z"></path><path fill="#fec73c" d="M57.66 77.41L45.22 99.72h25.16L57.66 77.41z"></path><path fill="#eb3b58" d="M62.44 69.13l17.43 30.59h35.41L79.87 39.15 62.44 69.13z"></path></g></svg></svg> <!----></g></g> <g transform="translate(67,23.48940896987915)"><g data-gra="path-name" fill-rule="" class="tp-name iconsvg-namesvg"><g transform="scale(0.11000000000000001)"><g><path d="M29.26-45.45L41.64-2.73L25.90-0.70L23.99-7.87L16.76-7.87L15.17-0.70L-1.02-2.29L11.62-44.56L29.26-45.45ZM18.09-17.58L22.85-17.58L20.44-28.63L18.09-17.58Z" transform="translate(1.015625, 45.44921875)"></path></g></g></g></g></g><defs v-gra="od"></defs></svg>